<svg xmlns="http://www.w3.org/2000/svg" viewBox="0 0 24 24" width="24" height="24">
  <!-- Background Circle -->
  <circle cx="12" cy="12" r="11" fill="#3273dc" />
  <!-- Letter G -->
  <path d="M10.81 5.71L8.6 8.7c-.12.16-.1.37.04.51l5.02 5.02c.14.14.36.16.51.04l2.99-2.21c.16-.12.18-.34.04-.49l-1.32-1.32c.93-.98 1.43-2.24 1.43-3.54 0-2.63-2.14-4.77-4.77-4.77-1.64 0-3.06.83-3.91 2.1zm6.27 8.19c-.1.13-.29.15-.42.05L12 12.19l-2.66 1.76c-.13.09-.31.06-.4-.05l-3.68-3.68c-.09-.09-.1-.23-.02-.33l3.5-4.66c.1-.13.28-.16.41-.06l2.57 1.92c.14.1.33.1.46 0l2.57-1.92c.13-.1.3-.1.44 0l3.5 4.66c.09.1.07.24-.02.33l-3.68 3.68z" fill="#fff" />
</svg>
