<svg xmlns="http://www.w3.org/2000/svg" viewBox="0 0 24 24" fill="#fff"><path d="M12 .5C5.5.5.5 5.5.5 12c0 5.1 3.3 9.4 7.9 10.9.6.1.8-.2.8-.5v-2c-3.2.7-3.9-1.6-3.9-1.6-.5-1.3-1.2-1.7-1.2-1.7-1-.7.1-.7.1-.7 1.2.1 1.8 1.2 1.8 1.2 1 .1.6 1.8 1.9 2.5 1.3.7 2.9.6 4.2.4.1-.7.3-1.2.7-1.5-2.6-.3-5.3-1.3-5.3-5.8 0-1.3.5-2.4 1.3-3.3-.2-.3-.6-1.7.1-3.5 0 0 1-.3 3.3 1.3.9-.2 1.9-.3 2.9-.3s2 .1 2.9.3c2.3-1.6 3.3-1.3 3.3-1.3.7 1.8.3 3.2.1 3.5.8 1 .1 2 .1 3.3 0 4.5-2.7 5.5-5.3 5.8.4.3.7 1 .7 1.9v2.7c0 .4.3.6.7.5 4.6-1.6 7.9-5.8 7.9-10.9 0-6.5-5-11.5-11.5-11.5z"/></svg>