<svg xmlns="http://www.w3.org/2000/svg" viewBox="0 0 24 24" fill="#fff"><path d="M22.23 0H1.77C.79 0 0 .78 0 1.75v20.5C0 23.22.79 24 1.77 24h20.45C23.22 24 24 23.22 24 22.25V1.75C24 .78 23.21 0 22.23 0zM7.12 20.46H3.56V9h3.56v11.46zm-1.78-13c-1.14 0-2.06-.92-2.06-2.06 0-1.13.92-2.05 2.06-2.05s2.06.92 2.06 2.05c0 1.14-.92 2.06-2.06 2.06zm14.67 13h-3.56v-5.59c0-1.33-.02-3.05-1.86-3.05-1.86 0-2.14 1.45-2.14 2.95v5.69h-3.56V9h3.42v1.56h.05c.48-.9 1.63-1.86 3.36-1.86 3.59 0 4.25 2.36 4.25 5.43v6.33z"/></svg>